<svg width="1280" height="640" viewBox="0 0 1280 640" fill="none" xmlns="http://www.w3.org/2000/svg">
<g clip-path="url(#clip0_3_44)">
<rect width="1280" height="640" fill="#131142"/>
<g style="mix-blend-mode:overlay" filter="url(#filter0_d_3_44)">
<circle cy="16" r="250" fill="white"/>
</g>
<g style="mix-blend-mode:overlay" filter="url(#filter1_d_3_44)">
<circle cy="16" r="125" fill="white"/>
</g>
<g style="mix-blend-mode:overlay" opacity="0.5" filter="url(#filter2_d_3_44)">
<circle cx="1280" cy="640" r="250" fill="white"/>
</g>
<g style="mix-blend-mode:overlay" opacity="0.5" filter="url(#filter3_d_3_44)">
<circle cx="1280" cy="640" r="125" fill="white"/>
</g>
<g style="mix-blend-mode:overlay">
<g style="mix-blend-mode:overlay" opacity="0.5" clip-path="url(#clip1_3_44)">
<path fill-rule="evenodd" clip-rule="evenodd" d="M35.4033 677.896C35.4033 677.896 57.4308 693.717 90.1378 697.379C90.1378 697.379 131.951 708.259 141.047 664.437C141.047 664.437 144.562 651.282 133.462 630.95C133.462 630.95 145.248 608.005 123.955 583.878C123.955 583.878 129.907 547.749 102.762 538.144C102.762 538.144 110.693 516.784 86.1287 511.685C86.1287 511.685 73.4071 510.149 66.6023 493.988C66.6023 493.988 59.3647 493.119 49.2652 503.097C49.2652 503.097 48.9947 521.633 21.5426 520.006C21.5426 520.006 0.851448 525.535 7.7379 548.292C7.7379 548.292 -6.62668 553.193 -16.5448 562.072C-16.5448 562.072 -21.3786 565.331 -21.6535 575.631C-21.6535 575.631 -21.5975 580.821 -21.8579 586.241C-21.8579 586.241 -21.8752 589.342 -24.5243 591.058C-24.5243 591.058 -26.2063 591.909 -43.7377 605.449C-43.7377 605.449 -49.0842 608.739 -53.9524 624.82C-53.9524 624.82 -65.6328 665.034 -13.6727 678.062C-13.6727 678.062 16.703 682.724 32.4514 677.514L34.1185 676.948L35.4033 677.896Z" fill="url(#paint0_linear_3_44)"/>
<path d="M72.5366 599.974C72.5366 599.974 81.6384 588.521 89.9761 601.275" stroke="#11113F" stroke-width="5.12" stroke-miterlimit="1.5" stroke-linecap="round" stroke-linejoin="round"/>
<path d="M15.3961 593.941C15.3961 593.941 24.4977 582.489 32.8349 595.242" stroke="#11113F" stroke-width="5.12" stroke-miterlimit="1.5" stroke-linecap="round" stroke-linejoin="round"/>
<path fill-rule="evenodd" clip-rule="evenodd" d="M21.5177 626.731L21.5978 625.626C21.8509 622.131 24.9989 619.508 28.6236 619.77L71.2342 622.859C74.8588 623.121 77.5955 626.171 77.3424 629.666L77.2857 630.446C73.7937 640.988 62.157 648.4 48.7156 647.782C34.7927 647.142 23.5536 638.101 21.5177 626.731Z" fill="#11113F"/>
</g>
<rect x="1216.5" y="65.4264" width="15" height="120" rx="7.5" transform="rotate(90 1216.5 65.4264)" fill="white"/>
<circle cx="1233.47" cy="71.7904" r="7.5" transform="rotate(45 1233.47 71.7904)" fill="white"/>
<rect x="1045.55" y="47.4706" width="15" height="120" rx="7.5" transform="rotate(-90 1045.55 47.4706)" fill="white"/>
<circle cx="1028.58" cy="41.1066" r="7.5" transform="rotate(-135 1028.58 41.1066)" fill="white"/>
</g>
<path fill-rule="evenodd" clip-rule="evenodd" d="M308.817 406.226C308.817 406.226 333.367 417.75 366.192 415.367C366.192 415.367 409.29 418.414 410.215 373.667C410.215 373.667 411.265 360.092 396.633 342.133C396.633 342.133 404.022 317.419 378.674 297.594C378.674 297.594 377.917 260.987 349.472 256.51C349.472 256.51 353.361 234.059 328.279 233.541C328.279 233.541 315.492 234.358 305.845 219.714C305.845 219.714 298.571 220.183 290.467 231.841C290.467 231.841 293.592 250.113 266.305 253.536C266.305 253.536 246.975 262.757 257.908 283.87C257.908 283.87 244.683 291.317 236.556 301.86C236.556 301.86 232.4 305.948 234.014 316.125C234.014 316.125 235.019 321.217 235.754 326.593C235.754 326.593 236.305 329.645 234.014 331.817C234.014 331.817 232.516 332.961 217.758 349.48C217.758 349.48 213.103 353.692 211.259 370.393C211.259 370.393 207.133 412.065 260.599 415.367C260.599 415.367 291.315 414.394 305.845 406.39L307.381 405.529L308.817 406.226Z" fill="url(#paint1_linear_3_44)"/>
<path d="M331.068 322.826C331.068 322.826 337.922 309.901 348.452 320.914" stroke="#11113F" stroke-width="5.12" stroke-miterlimit="1.5" stroke-linecap="round" stroke-linejoin="round"/>
<path d="M273.788 327.348C273.788 327.348 280.641 314.424 291.171 325.436" stroke="#11113F" stroke-width="5.12" stroke-miterlimit="1.5" stroke-linecap="round" stroke-linejoin="round"/>
<path fill-rule="evenodd" clip-rule="evenodd" d="M285.805 358.465L285.682 357.364C285.291 353.882 287.906 350.727 291.518 350.322L333.974 345.563C337.586 345.158 340.834 347.656 341.225 351.138L341.312 351.915C339.807 362.918 329.723 372.333 316.395 374.185C302.59 376.103 289.887 369.27 285.805 358.465Z" fill="#11113F"/>
<path d="M505.805 300.344C500.365 300.344 495.085 299.672 489.965 298.328C484.845 296.984 480.685 295.192 477.485 292.952L483.725 278.936C486.733 280.92 490.221 282.52 494.189 283.736C498.157 284.952 502.061 285.56 505.901 285.56C513.197 285.56 516.845 283.736 516.845 280.088C516.845 278.168 515.789 276.76 513.677 275.864C511.629 274.904 508.301 273.912 503.693 272.888C498.637 271.8 494.413 270.648 491.021 269.432C487.629 268.152 484.717 266.136 482.285 263.384C479.853 260.632 478.637 256.92 478.637 252.248C478.637 248.152 479.757 244.472 481.997 241.208C484.237 237.88 487.565 235.256 491.981 233.336C496.461 231.416 501.933 230.456 508.397 230.456C512.813 230.456 517.165 230.968 521.453 231.992C525.741 232.952 529.517 234.392 532.781 236.312L526.925 250.424C520.525 246.968 514.317 245.24 508.301 245.24C504.525 245.24 501.773 245.816 500.045 246.968C498.317 248.056 497.453 249.496 497.453 251.288C497.453 253.08 498.477 254.424 500.525 255.32C502.573 256.216 505.869 257.144 510.413 258.104C515.533 259.192 519.757 260.376 523.085 261.656C526.477 262.872 529.389 264.856 531.821 267.608C534.317 270.296 535.565 273.976 535.565 278.648C535.565 282.68 534.445 286.328 532.205 289.592C529.965 292.856 526.605 295.48 522.125 297.464C517.645 299.384 512.205 300.344 505.805 300.344ZM608.281 231.8V299H589.273V272.792H563.353V299H544.345V231.8H563.353V257.048H589.273V231.8H608.281ZM621.689 231.8H640.697V299H621.689V231.8ZM654.22 231.8H685.996C693.356 231.8 699.884 233.176 705.58 235.928C711.276 238.68 715.692 242.584 718.828 247.64C721.964 252.696 723.532 258.616 723.532 265.4C723.532 272.184 721.964 278.104 718.828 283.16C715.692 288.216 711.276 292.12 705.58 294.872C699.884 297.624 693.356 299 685.996 299H654.22V231.8ZM685.228 283.832C690.988 283.832 695.596 282.2 699.052 278.936C702.572 275.672 704.332 271.16 704.332 265.4C704.332 259.64 702.572 255.128 699.052 251.864C695.596 248.6 690.988 246.968 685.228 246.968H673.228V283.832H685.228ZM757.149 300.344C751.709 300.344 746.429 299.672 741.309 298.328C736.189 296.984 732.029 295.192 728.829 292.952L735.069 278.936C738.077 280.92 741.565 282.52 745.533 283.736C749.501 284.952 753.405 285.56 757.245 285.56C764.541 285.56 768.189 283.736 768.189 280.088C768.189 278.168 767.133 276.76 765.021 275.864C762.973 274.904 759.645 273.912 755.036 272.888C749.981 271.8 745.757 270.648 742.365 269.432C738.973 268.152 736.061 266.136 733.629 263.384C731.197 260.632 729.98 256.92 729.98 252.248C729.98 248.152 731.101 244.472 733.341 241.208C735.581 237.88 738.909 235.256 743.325 233.336C747.805 231.416 753.277 230.456 759.741 230.456C764.157 230.456 768.509 230.968 772.797 231.992C777.085 232.952 780.861 234.392 784.125 236.312L778.269 250.424C771.869 246.968 765.661 245.24 759.645 245.24C755.869 245.24 753.117 245.816 751.389 246.968C749.661 248.056 748.797 249.496 748.797 251.288C748.797 253.08 749.821 254.424 751.869 255.32C753.917 256.216 757.213 257.144 761.757 258.104C766.877 259.192 771.101 260.376 774.429 261.656C777.821 262.872 780.733 264.856 783.165 267.608C785.661 270.296 786.909 273.976 786.909 278.648C786.909 282.68 785.789 286.328 783.549 289.592C781.309 292.856 777.949 295.48 773.469 297.464C768.989 299.384 763.549 300.344 757.149 300.344ZM829.193 300.344C822.153 300.344 815.817 298.872 810.185 295.928C804.617 292.92 800.233 288.76 797.033 283.448C793.833 278.136 792.233 272.12 792.233 265.4C792.233 258.68 793.833 252.664 797.033 247.352C800.233 242.04 804.617 237.912 810.185 234.968C815.817 231.96 822.153 230.456 829.193 230.456C835.337 230.456 840.873 231.544 845.801 233.72C850.729 235.896 854.825 239.032 858.089 243.128L845.993 254.072C841.641 248.824 836.361 246.2 830.153 246.2C826.505 246.2 823.241 247 820.361 248.6C817.545 250.2 815.337 252.472 813.737 255.416C812.201 258.296 811.433 261.624 811.433 265.4C811.433 269.176 812.201 272.536 813.737 275.48C815.337 278.36 817.545 280.6 820.361 282.2C823.241 283.8 826.505 284.6 830.153 284.6C836.361 284.6 841.641 281.976 845.993 276.728L858.089 287.672C854.825 291.768 850.729 294.904 845.801 297.08C840.873 299.256 835.337 300.344 829.193 300.344ZM895.94 281.144H885.572V299H866.564V231.8H897.284C903.364 231.8 908.644 232.824 913.124 234.872C917.604 236.856 921.06 239.736 923.492 243.512C925.924 247.224 927.14 251.608 927.14 256.664C927.14 261.528 925.988 265.784 923.684 269.432C921.444 273.016 918.212 275.832 913.988 277.88L928.484 299H908.132L895.94 281.144ZM907.94 256.664C907.94 253.528 906.948 251.096 904.964 249.368C902.98 247.64 900.036 246.776 896.132 246.776H885.572V266.456H896.132C900.036 266.456 902.98 265.624 904.964 263.96C906.948 262.232 907.94 259.8 907.94 256.664ZM937.626 231.8H956.634V299H937.626V231.8ZM1000.88 231.8C1006.96 231.8 1012.24 232.824 1016.72 234.872C1021.2 236.856 1024.65 239.736 1027.09 243.512C1029.52 247.224 1030.73 251.608 1030.73 256.664C1030.73 261.72 1029.52 266.104 1027.09 269.816C1024.65 273.528 1021.2 276.408 1016.72 278.456C1012.24 280.44 1006.96 281.432 1000.88 281.432H989.166V299H970.158V231.8H1000.88ZM999.726 266.456C1003.63 266.456 1006.57 265.624 1008.56 263.96C1010.54 262.232 1011.53 259.8 1011.53 256.664C1011.53 253.528 1010.54 251.096 1008.56 249.368C1006.57 247.64 1003.63 246.776 999.726 246.776H989.166V266.456H999.726ZM1052.62 246.872H1031.98V231.8H1092.17V246.872H1071.63V299H1052.62V246.872Z" fill="white"/>
<path d="M547.109 335L537.669 363H534.549L526.349 339.12L518.109 363H515.029L505.589 335H508.629L516.709 359.08L525.069 335H527.829L536.069 359.2L544.269 335H547.109ZM563.243 341.8C565.883 341.8 567.976 342.573 569.523 344.12C571.096 345.64 571.883 347.867 571.883 350.8V363H569.043V351.08C569.043 348.893 568.496 347.227 567.403 346.08C566.309 344.933 564.749 344.36 562.723 344.36C560.456 344.36 558.656 345.04 557.323 346.4C556.016 347.733 555.363 349.587 555.363 351.96V363H552.523V333.32H555.363V345.64C556.136 344.413 557.203 343.467 558.562 342.8C559.923 342.133 561.483 341.8 563.243 341.8ZM597.991 353.36H580.391C580.551 355.547 581.391 357.32 582.911 358.68C584.431 360.013 586.351 360.68 588.671 360.68C589.978 360.68 591.178 360.453 592.271 360C593.364 359.52 594.311 358.827 595.111 357.92L596.711 359.76C595.778 360.88 594.604 361.733 593.191 362.32C591.804 362.907 590.271 363.2 588.591 363.2C586.431 363.2 584.511 362.747 582.831 361.84C581.178 360.907 579.884 359.627 578.951 358C578.018 356.373 577.551 354.533 577.551 352.48C577.551 350.427 577.991 348.587 578.871 346.96C579.778 345.333 581.004 344.067 582.551 343.16C584.124 342.253 585.884 341.8 587.831 341.8C589.778 341.8 591.524 342.253 593.071 343.16C594.618 344.067 595.831 345.333 596.711 346.96C597.591 348.56 598.031 350.4 598.031 352.48L597.991 353.36ZM587.831 344.24C585.804 344.24 584.098 344.893 582.711 346.2C581.351 347.48 580.578 349.16 580.391 351.24H595.311C595.124 349.16 594.338 347.48 592.951 346.2C591.591 344.893 589.884 344.24 587.831 344.24ZM614.532 341.8C617.172 341.8 619.265 342.573 620.812 344.12C622.385 345.64 623.172 347.867 623.172 350.8V363H620.332V351.08C620.332 348.893 619.785 347.227 618.692 346.08C617.598 344.933 616.038 344.36 614.012 344.36C611.745 344.36 609.945 345.04 608.612 346.4C607.305 347.733 606.652 349.587 606.652 351.96V363H603.812V341.96H606.532V345.84C607.305 344.56 608.372 343.573 609.732 342.88C611.118 342.16 612.718 341.8 614.532 341.8ZM648.711 341.8C651.457 341.8 653.564 342.493 655.031 343.88C656.497 345.24 657.231 347.267 657.231 349.96V363H654.511V359.72C653.871 360.813 652.924 361.667 651.671 362.28C650.444 362.893 648.977 363.2 647.271 363.2C644.924 363.2 643.057 362.64 641.671 361.52C640.284 360.4 639.591 358.92 639.591 357.08C639.591 355.293 640.231 353.853 641.511 352.76C642.817 351.667 644.884 351.12 647.711 351.12H654.391V349.84C654.391 348.027 653.884 346.653 652.871 345.72C651.857 344.76 650.377 344.28 648.431 344.28C647.097 344.28 645.817 344.507 644.591 344.96C643.364 345.387 642.311 345.987 641.431 346.76L640.151 344.64C641.217 343.733 642.497 343.04 643.991 342.56C645.484 342.053 647.057 341.8 648.711 341.8ZM647.711 360.96C649.311 360.96 650.684 360.6 651.831 359.88C652.977 359.133 653.831 358.067 654.391 356.68V353.24H647.791C644.191 353.24 642.391 354.493 642.391 357C642.391 358.227 642.857 359.2 643.791 359.92C644.724 360.613 646.031 360.96 647.711 360.96ZM686.253 341.8C688.226 341.8 690.013 342.253 691.613 343.16C693.213 344.04 694.466 345.293 695.373 346.92C696.28 348.547 696.733 350.4 696.733 352.48C696.733 354.587 696.28 356.453 695.373 358.08C694.466 359.707 693.213 360.973 691.613 361.88C690.04 362.76 688.253 363.2 686.253 363.2C684.546 363.2 683 362.853 681.613 362.16C680.253 361.44 679.133 360.4 678.253 359.04V370.76H675.413V341.96H678.133V346.12C678.986 344.733 680.106 343.667 681.493 342.92C682.906 342.173 684.493 341.8 686.253 341.8ZM686.053 360.68C687.52 360.68 688.853 360.347 690.053 359.68C691.253 358.987 692.186 358.013 692.853 356.76C693.546 355.507 693.893 354.08 693.893 352.48C693.893 350.88 693.546 349.467 692.853 348.24C692.186 346.987 691.253 346.013 690.053 345.32C688.853 344.627 687.52 344.28 686.053 344.28C684.56 344.28 683.213 344.627 682.013 345.32C680.84 346.013 679.906 346.987 679.213 348.24C678.546 349.467 678.213 350.88 678.213 352.48C678.213 354.08 678.546 355.507 679.213 356.76C679.906 358.013 680.84 358.987 682.013 359.68C683.213 360.347 684.56 360.68 686.053 360.68ZM705.243 346.08C705.909 344.667 706.896 343.6 708.203 342.88C709.536 342.16 711.176 341.8 713.123 341.8V344.56L712.443 344.52C710.229 344.52 708.496 345.2 707.243 346.56C705.989 347.92 705.363 349.827 705.363 352.28V363H702.523V341.96H705.243V346.08ZM726.669 363.2C724.643 363.2 722.816 362.747 721.189 361.84C719.563 360.907 718.283 359.627 717.349 358C716.416 356.373 715.949 354.533 715.949 352.48C715.949 350.427 716.416 348.587 717.349 346.96C718.283 345.333 719.563 344.067 721.189 343.16C722.816 342.253 724.643 341.8 726.669 341.8C728.696 341.8 730.523 342.253 732.149 343.16C733.776 344.067 735.043 345.333 735.949 346.96C736.883 348.587 737.349 350.427 737.349 352.48C737.349 354.533 736.883 356.373 735.949 358C735.043 359.627 733.776 360.907 732.149 361.84C730.523 362.747 728.696 363.2 726.669 363.2ZM726.669 360.68C728.163 360.68 729.496 360.347 730.669 359.68C731.869 358.987 732.803 358.013 733.469 356.76C734.136 355.507 734.469 354.08 734.469 352.48C734.469 350.88 734.136 349.453 733.469 348.2C732.803 346.947 731.869 345.987 730.669 345.32C729.496 344.627 728.163 344.28 726.669 344.28C725.176 344.28 723.829 344.627 722.629 345.32C721.456 345.987 720.523 346.947 719.829 348.2C719.163 349.453 718.829 350.88 718.829 352.48C718.829 354.08 719.163 355.507 719.829 356.76C720.523 358.013 721.456 358.987 722.629 359.68C723.829 360.347 725.176 360.68 726.669 360.68ZM762.628 341.96V360.44C762.628 364.013 761.748 366.653 759.988 368.36C758.254 370.093 755.628 370.96 752.108 370.96C750.161 370.96 748.308 370.667 746.548 370.08C744.814 369.52 743.401 368.733 742.308 367.72L743.748 365.56C744.761 366.467 745.988 367.173 747.428 367.68C748.894 368.187 750.428 368.44 752.028 368.44C754.694 368.44 756.654 367.813 757.908 366.56C759.161 365.333 759.788 363.413 759.788 360.8V358.12C758.908 359.453 757.748 360.467 756.308 361.16C754.894 361.853 753.321 362.2 751.588 362.2C749.614 362.2 747.814 361.773 746.188 360.92C744.588 360.04 743.321 358.827 742.388 357.28C741.481 355.707 741.028 353.933 741.028 351.96C741.028 349.987 741.481 348.227 742.388 346.68C743.321 345.133 744.588 343.933 746.188 343.08C747.788 342.227 749.588 341.8 751.588 341.8C753.374 341.8 754.988 342.16 756.428 342.88C757.868 343.6 759.028 344.64 759.908 346V341.96H762.628ZM751.868 359.68C753.388 359.68 754.761 359.36 755.988 358.72C757.214 358.053 758.161 357.133 758.828 355.96C759.521 354.787 759.868 353.453 759.868 351.96C759.868 350.467 759.521 349.147 758.828 348C758.161 346.827 757.214 345.92 755.988 345.28C754.788 344.613 753.414 344.28 751.868 344.28C750.348 344.28 748.974 344.6 747.748 345.24C746.548 345.88 745.601 346.787 744.908 347.96C744.241 349.133 743.908 350.467 743.908 351.96C743.908 353.453 744.241 354.787 744.908 355.96C745.601 357.133 746.548 358.053 747.748 358.72C748.974 359.36 750.348 359.68 751.868 359.68ZM773.289 346.08C773.956 344.667 774.943 343.6 776.249 342.88C777.583 342.16 779.223 341.8 781.169 341.8V344.56L780.489 344.52C778.276 344.52 776.543 345.2 775.289 346.56C774.036 347.92 773.409 349.827 773.409 352.28V363H770.569V341.96H773.289V346.08ZM793.633 341.8C796.379 341.8 798.486 342.493 799.953 343.88C801.419 345.24 802.153 347.267 802.153 349.96V363H799.433V359.72C798.793 360.813 797.846 361.667 796.593 362.28C795.366 362.893 793.899 363.2 792.193 363.2C789.846 363.2 787.979 362.64 786.593 361.52C785.206 360.4 784.513 358.92 784.513 357.08C784.513 355.293 785.153 353.853 786.433 352.76C787.739 351.667 789.806 351.12 792.633 351.12H799.313V349.84C799.313 348.027 798.806 346.653 797.793 345.72C796.779 344.76 795.299 344.28 793.353 344.28C792.019 344.28 790.739 344.507 789.513 344.96C788.286 345.387 787.233 345.987 786.353 346.76L785.073 344.64C786.139 343.733 787.419 343.04 788.913 342.56C790.406 342.053 791.979 341.8 793.633 341.8ZM792.633 360.96C794.233 360.96 795.606 360.6 796.753 359.88C797.899 359.133 798.753 358.067 799.313 356.68V353.24H792.713C789.113 353.24 787.312 354.493 787.312 357C787.312 358.227 787.779 359.2 788.713 359.92C789.646 360.613 790.953 360.96 792.633 360.96ZM836.106 341.8C838.746 341.8 840.813 342.56 842.306 344.08C843.826 345.6 844.586 347.84 844.586 350.8V363H841.746V351.08C841.746 348.893 841.213 347.227 840.146 346.08C839.106 344.933 837.626 344.36 835.706 344.36C833.52 344.36 831.8 345.04 830.546 346.4C829.293 347.733 828.666 349.587 828.666 351.96V363H825.826V351.08C825.826 348.893 825.293 347.227 824.226 346.08C823.186 344.933 821.693 344.36 819.746 344.36C817.586 344.36 815.866 345.04 814.586 346.4C813.333 347.733 812.706 349.587 812.706 351.96V363H809.866V341.96H812.586V345.8C813.333 344.52 814.373 343.533 815.706 342.84C817.04 342.147 818.573 341.8 820.306 341.8C822.066 341.8 823.586 342.173 824.866 342.92C826.173 343.667 827.146 344.773 827.786 346.24C828.56 344.853 829.666 343.773 831.106 343C832.573 342.2 834.24 341.8 836.106 341.8ZM878.528 341.8C881.168 341.8 883.235 342.56 884.728 344.08C886.248 345.6 887.008 347.84 887.008 350.8V363H884.168V351.08C884.168 348.893 883.635 347.227 882.568 346.08C881.528 344.933 880.048 344.36 878.128 344.36C875.941 344.36 874.221 345.04 872.968 346.4C871.715 347.733 871.088 349.587 871.088 351.96V363H868.248V351.08C868.248 348.893 867.715 347.227 866.648 346.08C865.608 344.933 864.115 344.36 862.168 344.36C860.008 344.36 858.288 345.04 857.008 346.4C855.755 347.733 855.128 349.587 855.128 351.96V363H852.288V341.96H855.008V345.8C855.755 344.52 856.795 343.533 858.128 342.84C859.461 342.147 860.995 341.8 862.728 341.8C864.488 341.8 866.008 342.173 867.288 342.92C868.595 343.667 869.568 344.773 870.208 346.24C870.981 344.853 872.088 343.773 873.528 343C874.995 342.2 876.661 341.8 878.528 341.8ZM894.71 341.96H897.55V363H894.71V341.96ZM896.15 337.36C895.563 337.36 895.07 337.16 894.67 336.76C894.27 336.36 894.07 335.88 894.07 335.32C894.07 334.787 894.27 334.32 894.67 333.92C895.07 333.52 895.563 333.32 896.15 333.32C896.737 333.32 897.23 333.52 897.63 333.92C898.03 334.293 898.23 334.747 898.23 335.28C898.23 335.867 898.03 336.36 897.63 336.76C897.23 337.16 896.737 337.36 896.15 337.36ZM916.172 341.8C918.812 341.8 920.906 342.573 922.452 344.12C924.026 345.64 924.812 347.867 924.812 350.8V363H921.972V351.08C921.972 348.893 921.426 347.227 920.332 346.08C919.239 344.933 917.679 344.36 915.652 344.36C913.386 344.36 911.586 345.04 910.252 346.4C908.946 347.733 908.292 349.587 908.292 351.96V363H905.452V341.96H908.172V345.84C908.946 344.56 910.012 343.573 911.372 342.88C912.759 342.16 914.359 341.8 916.172 341.8ZM952.081 341.96V360.44C952.081 364.013 951.201 366.653 949.441 368.36C947.707 370.093 945.081 370.96 941.561 370.96C939.614 370.96 937.761 370.667 936.001 370.08C934.267 369.52 932.854 368.733 931.761 367.72L933.201 365.56C934.214 366.467 935.441 367.173 936.881 367.68C938.347 368.187 939.881 368.44 941.481 368.44C944.147 368.44 946.107 367.813 947.361 366.56C948.614 365.333 949.241 363.413 949.241 360.8V358.12C948.361 359.453 947.201 360.467 945.761 361.16C944.347 361.853 942.774 362.2 941.041 362.2C939.067 362.2 937.267 361.773 935.641 360.92C934.041 360.04 932.774 358.827 931.841 357.28C930.934 355.707 930.481 353.933 930.481 351.96C930.481 349.987 930.934 348.227 931.841 346.68C932.774 345.133 934.041 343.933 935.641 343.08C937.241 342.227 939.041 341.8 941.041 341.8C942.827 341.8 944.441 342.16 945.881 342.88C947.321 343.6 948.481 344.64 949.361 346V341.96H952.081ZM941.321 359.68C942.841 359.68 944.214 359.36 945.441 358.72C946.667 358.053 947.614 357.133 948.281 355.96C948.974 354.787 949.321 353.453 949.321 351.96C949.321 350.467 948.974 349.147 948.281 348C947.614 346.827 946.667 345.92 945.441 345.28C944.241 344.613 942.867 344.28 941.321 344.28C939.801 344.28 938.427 344.6 937.201 345.24C936.001 345.88 935.054 346.787 934.361 347.96C933.694 349.133 933.361 350.467 933.361 351.96C933.361 353.453 933.694 354.787 934.361 355.96C935.054 357.133 936.001 358.053 937.201 358.72C938.427 359.36 939.801 359.68 941.321 359.68ZM967.371 370.96C966.491 370.96 965.665 370.84 964.891 370.6C964.091 370.387 963.438 370.053 962.931 369.6L963.931 367.44C964.758 368.16 965.851 368.52 967.211 368.52C968.331 368.52 969.185 368.187 969.771 367.52C970.385 366.853 970.691 365.867 970.691 364.56V341.96H973.531V364.56C973.531 366.533 972.998 368.093 971.931 369.24C970.865 370.387 969.345 370.96 967.371 370.96ZM972.131 337.32C971.545 337.32 971.051 337.12 970.651 336.72C970.251 336.32 970.051 335.84 970.051 335.28C970.051 334.747 970.251 334.28 970.651 333.88C971.051 333.48 971.545 333.28 972.131 333.28C972.718 333.28 973.211 333.48 973.611 333.88C974.011 334.253 974.211 334.707 974.211 335.24C974.211 335.827 974.011 336.32 973.611 336.72C973.211 337.12 972.718 337.32 972.131 337.32ZM990.068 363.2C988.041 363.2 986.214 362.747 984.588 361.84C982.961 360.907 981.681 359.627 980.748 358C979.814 356.373 979.348 354.533 979.348 352.48C979.348 350.427 979.814 348.587 980.748 346.96C981.681 345.333 982.961 344.067 984.588 343.16C986.214 342.253 988.041 341.8 990.068 341.8C992.094 341.8 993.921 342.253 995.548 343.16C997.174 344.067 998.441 345.333 999.348 346.96C1000.28 348.587 1000.75 350.427 1000.75 352.48C1000.75 354.533 1000.28 356.373 999.348 358C998.441 359.627 997.174 360.907 995.548 361.84C993.921 362.747 992.094 363.2 990.068 363.2ZM990.068 360.68C991.561 360.68 992.894 360.347 994.068 359.68C995.268 358.987 996.201 358.013 996.868 356.76C997.534 355.507 997.868 354.08 997.868 352.48C997.868 350.88 997.534 349.453 996.868 348.2C996.201 346.947 995.268 345.987 994.068 345.32C992.894 344.627 991.561 344.28 990.068 344.28C988.574 344.28 987.228 344.627 986.028 345.32C984.854 345.987 983.921 346.947 983.228 348.2C982.561 349.453 982.228 350.88 982.228 352.48C982.228 354.08 982.561 355.507 983.228 356.76C983.921 358.013 984.854 358.987 986.028 359.68C987.228 360.347 988.574 360.68 990.068 360.68ZM1014.35 352.44L1009.39 357V363H1006.55V333.32H1009.39V353.44L1021.95 341.96H1025.47L1016.47 350.56L1026.31 363H1022.83L1014.35 352.44ZM1048.03 353.36H1030.43C1030.59 355.547 1031.43 357.32 1032.95 358.68C1034.47 360.013 1036.39 360.68 1038.71 360.68C1040.02 360.68 1041.22 360.453 1042.31 360C1043.4 359.52 1044.35 358.827 1045.15 357.92L1046.75 359.76C1045.82 360.88 1044.64 361.733 1043.23 362.32C1041.84 362.907 1040.31 363.2 1038.63 363.2C1036.47 363.2 1034.55 362.747 1032.87 361.84C1031.22 360.907 1029.92 359.627 1028.99 358C1028.06 356.373 1027.59 354.533 1027.59 352.48C1027.59 350.427 1028.03 348.587 1028.91 346.96C1029.82 345.333 1031.04 344.067 1032.59 343.16C1034.16 342.253 1035.92 341.8 1037.87 341.8C1039.82 341.8 1041.56 342.253 1043.11 343.16C1044.66 344.067 1045.87 345.333 1046.75 346.96C1047.63 348.56 1048.07 350.4 1048.07 352.48L1048.03 353.36ZM1037.87 344.24C1035.84 344.24 1034.14 344.893 1032.75 346.2C1031.39 347.48 1030.62 349.16 1030.43 351.24H1045.35C1045.16 349.16 1044.38 347.48 1042.99 346.2C1041.63 344.893 1039.92 344.24 1037.87 344.24ZM644.769 390.8C646.742 390.8 648.529 391.253 650.129 392.16C651.729 393.04 652.982 394.293 653.889 395.92C654.795 397.547 655.249 399.4 655.249 401.48C655.249 403.56 654.795 405.413 653.889 407.04C652.982 408.667 651.729 409.933 650.129 410.84C648.529 411.747 646.742 412.2 644.769 412.2C643.009 412.2 641.422 411.827 640.009 411.08C638.622 410.333 637.502 409.253 636.649 407.84V412H633.929V382.32H636.769V394.96C637.649 393.6 638.769 392.573 640.129 391.88C641.515 391.16 643.062 390.8 644.769 390.8ZM644.569 409.68C646.035 409.68 647.369 409.347 648.569 408.68C649.769 407.987 650.702 407.013 651.369 405.76C652.062 404.507 652.409 403.08 652.409 401.48C652.409 399.88 652.062 398.453 651.369 397.2C650.702 395.947 649.769 394.987 648.569 394.32C647.369 393.627 646.035 393.28 644.569 393.28C643.075 393.28 641.729 393.627 640.529 394.32C639.355 394.987 638.422 395.947 637.729 397.2C637.062 398.453 636.729 399.88 636.729 401.48C636.729 403.08 637.062 404.507 637.729 405.76C638.422 407.013 639.355 407.987 640.529 408.68C641.729 409.347 643.075 409.68 644.569 409.68ZM679.358 402.36H661.758C661.918 404.547 662.758 406.32 664.278 407.68C665.798 409.013 667.718 409.68 670.038 409.68C671.345 409.68 672.545 409.453 673.638 409C674.731 408.52 675.678 407.827 676.478 406.92L678.078 408.76C677.145 409.88 675.971 410.733 674.558 411.32C673.171 411.907 671.638 412.2 669.958 412.2C667.798 412.2 665.878 411.747 664.198 410.84C662.545 409.907 661.251 408.627 660.318 407C659.385 405.373 658.918 403.533 658.918 401.48C658.918 399.427 659.358 397.587 660.238 395.96C661.145 394.333 662.371 393.067 663.918 392.16C665.491 391.253 667.251 390.8 669.198 390.8C671.145 390.8 672.891 391.253 674.438 392.16C675.985 393.067 677.198 394.333 678.078 395.96C678.958 397.56 679.398 399.4 679.398 401.48L679.358 402.36ZM669.198 393.24C667.171 393.24 665.465 393.893 664.078 395.2C662.718 396.48 661.945 398.16 661.758 400.24H676.678C676.491 398.16 675.705 396.48 674.318 395.2C672.958 393.893 671.251 393.24 669.198 393.24ZM693.899 412.2C691.819 412.2 689.952 411.747 688.299 410.84C686.672 409.933 685.392 408.667 684.459 407.04C683.525 405.387 683.059 403.533 683.059 401.48C683.059 399.427 683.525 397.587 684.459 395.96C685.392 394.333 686.672 393.067 688.299 392.16C689.952 391.253 691.819 390.8 693.899 390.8C695.712 390.8 697.325 391.16 698.739 391.88C700.179 392.573 701.312 393.6 702.139 394.96L700.019 396.4C699.325 395.36 698.445 394.587 697.379 394.08C696.312 393.547 695.152 393.28 693.899 393.28C692.379 393.28 691.005 393.627 689.779 394.32C688.579 394.987 687.632 395.947 686.939 397.2C686.272 398.453 685.939 399.88 685.939 401.48C685.939 403.107 686.272 404.547 686.939 405.8C687.632 407.027 688.579 407.987 689.779 408.68C691.005 409.347 692.379 409.68 693.899 409.68C695.152 409.68 696.312 409.427 697.379 408.92C698.445 408.413 699.325 407.64 700.019 406.6L702.139 408.04C701.312 409.4 700.179 410.44 698.739 411.16C697.299 411.853 695.685 412.2 693.899 412.2ZM715.966 412.2C713.94 412.2 712.113 411.747 710.486 410.84C708.86 409.907 707.58 408.627 706.646 407C705.713 405.373 705.246 403.533 705.246 401.48C705.246 399.427 705.713 397.587 706.646 395.96C707.58 394.333 708.86 393.067 710.486 392.16C712.113 391.253 713.94 390.8 715.966 390.8C717.993 390.8 719.82 391.253 721.446 392.16C723.073 393.067 724.34 394.333 725.246 395.96C726.18 397.587 726.646 399.427 726.646 401.48C726.646 403.533 726.18 405.373 725.246 407C724.34 408.627 723.073 409.907 721.446 410.84C719.82 411.747 717.993 412.2 715.966 412.2ZM715.966 409.68C717.46 409.68 718.793 409.347 719.966 408.68C721.166 407.987 722.1 407.013 722.766 405.76C723.433 404.507 723.766 403.08 723.766 401.48C723.766 399.88 723.433 398.453 722.766 397.2C722.1 395.947 721.166 394.987 719.966 394.32C718.793 393.627 717.46 393.28 715.966 393.28C714.473 393.28 713.126 393.627 711.926 394.32C710.753 394.987 709.82 395.947 709.126 397.2C708.46 398.453 708.126 399.88 708.126 401.48C708.126 403.08 708.46 404.507 709.126 405.76C709.82 407.013 710.753 407.987 711.926 408.68C713.126 409.347 714.473 409.68 715.966 409.68ZM758.684 390.8C761.324 390.8 763.391 391.56 764.884 393.08C766.404 394.6 767.164 396.84 767.164 399.8V412H764.324V400.08C764.324 397.893 763.791 396.227 762.724 395.08C761.684 393.933 760.204 393.36 758.284 393.36C756.098 393.36 754.378 394.04 753.124 395.4C751.871 396.733 751.244 398.587 751.244 400.96V412H748.404V400.08C748.404 397.893 747.871 396.227 746.804 395.08C745.764 393.933 744.271 393.36 742.324 393.36C740.164 393.36 738.444 394.04 737.164 395.4C735.911 396.733 735.284 398.587 735.284 400.96V412H732.444V390.96H735.164V394.8C735.911 393.52 736.951 392.533 738.284 391.84C739.618 391.147 741.151 390.8 742.884 390.8C744.644 390.8 746.164 391.173 747.444 391.92C748.751 392.667 749.724 393.773 750.364 395.24C751.138 393.853 752.244 392.773 753.684 392C755.151 391.2 756.818 390.8 758.684 390.8ZM793.264 402.36H775.664C775.824 404.547 776.664 406.32 778.184 407.68C779.704 409.013 781.624 409.68 783.944 409.68C785.251 409.68 786.451 409.453 787.544 409C788.638 408.52 789.584 407.827 790.384 406.92L791.984 408.76C791.051 409.88 789.878 410.733 788.464 411.32C787.078 411.907 785.544 412.2 783.864 412.2C781.704 412.2 779.784 411.747 778.104 410.84C776.451 409.907 775.158 408.627 774.224 407C773.291 405.373 772.824 403.533 772.824 401.48C772.824 399.427 773.264 397.587 774.144 395.96C775.051 394.333 776.278 393.067 777.824 392.16C779.398 391.253 781.158 390.8 783.104 390.8C785.051 390.8 786.798 391.253 788.344 392.16C789.891 393.067 791.104 394.333 791.984 395.96C792.864 397.56 793.304 399.4 793.304 401.48L793.264 402.36ZM783.104 393.24C781.078 393.24 779.371 393.893 777.984 395.2C776.624 396.48 775.851 398.16 775.664 400.24H790.584C790.398 398.16 789.611 396.48 788.224 395.2C786.864 393.893 785.158 393.24 783.104 393.24ZM804.725 412.2C803.018 412.2 801.378 411.96 799.805 411.48C798.258 410.973 797.045 410.347 796.165 409.6L797.445 407.36C798.325 408.053 799.432 408.627 800.765 409.08C802.098 409.507 803.485 409.72 804.925 409.72C806.845 409.72 808.258 409.427 809.165 408.84C810.098 408.227 810.565 407.373 810.565 406.28C810.565 405.507 810.312 404.907 809.805 404.48C809.298 404.027 808.658 403.693 807.885 403.48C807.112 403.24 806.085 403.013 804.805 402.8C803.098 402.48 801.725 402.16 800.685 401.84C799.645 401.493 798.752 400.92 798.005 400.12C797.285 399.32 796.925 398.213 796.925 396.8C796.925 395.04 797.658 393.6 799.125 392.48C800.592 391.36 802.632 390.8 805.245 390.8C806.605 390.8 807.965 390.987 809.325 391.36C810.685 391.707 811.805 392.173 812.685 392.76L811.445 395.04C809.712 393.84 807.645 393.24 805.245 393.24C803.432 393.24 802.058 393.56 801.125 394.2C800.218 394.84 799.765 395.68 799.765 396.72C799.765 397.52 800.018 398.16 800.525 398.64C801.058 399.12 801.712 399.48 802.485 399.72C803.258 399.933 804.325 400.16 805.685 400.4C807.365 400.72 808.712 401.04 809.725 401.36C810.738 401.68 811.605 402.227 812.325 403C813.045 403.773 813.405 404.84 813.405 406.2C813.405 408.04 812.632 409.507 811.085 410.6C809.565 411.667 807.445 412.2 804.725 412.2ZM831.844 395.08C832.511 393.667 833.497 392.6 834.804 391.88C836.137 391.16 837.777 390.8 839.724 390.8V393.56L839.044 393.52C836.831 393.52 835.097 394.2 833.844 395.56C832.591 396.92 831.964 398.827 831.964 401.28V412H829.124V390.96H831.844V395.08ZM862.991 402.36H845.391C845.551 404.547 846.391 406.32 847.911 407.68C849.431 409.013 851.351 409.68 853.671 409.68C854.978 409.68 856.178 409.453 857.271 409C858.364 408.52 859.311 407.827 860.111 406.92L861.711 408.76C860.778 409.88 859.604 410.733 858.191 411.32C856.804 411.907 855.271 412.2 853.591 412.2C851.431 412.2 849.511 411.747 847.831 410.84C846.178 409.907 844.884 408.627 843.951 407C843.018 405.373 842.551 403.533 842.551 401.48C842.551 399.427 842.991 397.587 843.871 395.96C844.778 394.333 846.004 393.067 847.551 392.16C849.124 391.253 850.884 390.8 852.831 390.8C854.778 390.8 856.524 391.253 858.071 392.16C859.618 393.067 860.831 394.333 861.711 395.96C862.591 397.56 863.031 399.4 863.031 401.48L862.991 402.36ZM852.831 393.24C850.804 393.24 849.098 393.893 847.711 395.2C846.351 396.48 845.578 398.16 845.391 400.24H860.311C860.124 398.16 859.338 396.48 857.951 395.2C856.591 393.893 854.884 393.24 852.831 393.24ZM875.586 390.8C878.332 390.8 880.439 391.493 881.906 392.88C883.372 394.24 884.106 396.267 884.106 398.96V412H881.386V408.72C880.746 409.813 879.799 410.667 878.546 411.28C877.319 411.893 875.852 412.2 874.146 412.2C871.799 412.2 869.932 411.64 868.546 410.52C867.159 409.4 866.466 407.92 866.466 406.08C866.466 404.293 867.106 402.853 868.386 401.76C869.692 400.667 871.759 400.12 874.586 400.12H881.266V398.84C881.266 397.027 880.759 395.653 879.746 394.72C878.732 393.76 877.252 393.28 875.306 393.28C873.972 393.28 872.692 393.507 871.466 393.96C870.239 394.387 869.186 394.987 868.306 395.76L867.026 393.64C868.092 392.733 869.372 392.04 870.866 391.56C872.359 391.053 873.932 390.8 875.586 390.8ZM874.586 409.96C876.186 409.96 877.559 409.6 878.706 408.88C879.852 408.133 880.706 407.067 881.266 405.68V402.24H874.666C871.066 402.24 869.266 403.493 869.266 406C869.266 407.227 869.732 408.2 870.666 408.92C871.599 409.613 872.906 409.96 874.586 409.96ZM891.819 382.32H894.659V412H891.819V382.32ZM902.842 412.2C902.255 412.2 901.748 411.987 901.322 411.56C900.922 411.133 900.722 410.613 900.722 410C900.722 409.387 900.922 408.88 901.322 408.48C901.748 408.053 902.255 407.84 902.842 407.84C903.428 407.84 903.935 408.053 904.362 408.48C904.788 408.88 905.002 409.387 905.002 410C905.002 410.613 904.788 411.133 904.362 411.56C903.935 411.987 903.428 412.2 902.842 412.2ZM911.318 412.2C910.731 412.2 910.225 411.987 909.798 411.56C909.398 411.133 909.198 410.613 909.198 410C909.198 409.387 909.398 408.88 909.798 408.48C910.225 408.053 910.731 407.84 911.318 407.84C911.905 407.84 912.411 408.053 912.838 408.48C913.265 408.88 913.478 409.387 913.478 410C913.478 410.613 913.265 411.133 912.838 411.56C912.411 411.987 911.905 412.2 911.318 412.2ZM919.795 412.2C919.208 412.2 918.701 411.987 918.275 411.56C917.875 411.133 917.675 410.613 917.675 410C917.675 409.387 917.875 408.88 918.275 408.48C918.701 408.053 919.208 407.84 919.795 407.84C920.381 407.84 920.888 408.053 921.315 408.48C921.741 408.88 921.955 409.387 921.955 410C921.955 410.613 921.741 411.133 921.315 411.56C920.888 411.987 920.381 412.2 919.795 412.2Z" fill="#DDDDDD"/>
</g>
<defs>
<filter id="filter0_d_3_44" x="-254" y="-234" width="508" height="508" filterUnits="userSpaceOnUse" color-interpolation-filters="sRGB">
<feFlood flood-opacity="0" result="BackgroundImageFix"/>
<feColorMatrix in="SourceAlpha" type="matrix" values="0 0 0 0 0 0 0 0 0 0 0 0 0 0 0 0 0 0 127 0" result="hardAlpha"/>
<feOffset dy="4"/>
<feGaussianBlur stdDeviation="2"/>
<feComposite in2="hardAlpha" operator="out"/>
<feColorMatrix type="matrix" values="0 0 0 0 0 0 0 0 0 0 0 0 0 0 0 0 0 0 0.25 0"/>
<feBlend mode="normal" in2="BackgroundImageFix" result="effect1_dropShadow_3_44"/>
<feBlend mode="normal" in="SourceGraphic" in2="effect1_dropShadow_3_44" result="shape"/>
</filter>
<filter id="filter1_d_3_44" x="-129" y="-109" width="258" height="258" filterUnits="userSpaceOnUse" color-interpolation-filters="sRGB">
<feFlood flood-opacity="0" result="BackgroundImageFix"/>
<feColorMatrix in="SourceAlpha" type="matrix" values="0 0 0 0 0 0 0 0 0 0 0 0 0 0 0 0 0 0 127 0" result="hardAlpha"/>
<feOffset dy="4"/>
<feGaussianBlur stdDeviation="2"/>
<feComposite in2="hardAlpha" operator="out"/>
<feColorMatrix type="matrix" values="0 0 0 0 0 0 0 0 0 0 0 0 0 0 0 0 0 0 0.25 0"/>
<feBlend mode="normal" in2="BackgroundImageFix" result="effect1_dropShadow_3_44"/>
<feBlend mode="normal" in="SourceGraphic" in2="effect1_dropShadow_3_44" result="shape"/>
</filter>
<filter id="filter2_d_3_44" x="1026" y="390" width="508" height="508" filterUnits="userSpaceOnUse" color-interpolation-filters="sRGB">
<feFlood flood-opacity="0" result="BackgroundImageFix"/>
<feColorMatrix in="SourceAlpha" type="matrix" values="0 0 0 0 0 0 0 0 0 0 0 0 0 0 0 0 0 0 127 0" result="hardAlpha"/>
<feOffset dy="4"/>
<feGaussianBlur stdDeviation="2"/>
<feComposite in2="hardAlpha" operator="out"/>
<feColorMatrix type="matrix" values="0 0 0 0 0 0 0 0 0 0 0 0 0 0 0 0 0 0 0.25 0"/>
<feBlend mode="normal" in2="BackgroundImageFix" result="effect1_dropShadow_3_44"/>
<feBlend mode="normal" in="SourceGraphic" in2="effect1_dropShadow_3_44" result="shape"/>
</filter>
<filter id="filter3_d_3_44" x="1151" y="515" width="258" height="258" filterUnits="userSpaceOnUse" color-interpolation-filters="sRGB">
<feFlood flood-opacity="0" result="BackgroundImageFix"/>
<feColorMatrix in="SourceAlpha" type="matrix" values="0 0 0 0 0 0 0 0 0 0 0 0 0 0 0 0 0 0 127 0" result="hardAlpha"/>
<feOffset dy="4"/>
<feGaussianBlur stdDeviation="2"/>
<feComposite in2="hardAlpha" operator="out"/>
<feColorMatrix type="matrix" values="0 0 0 0 0 0 0 0 0 0 0 0 0 0 0 0 0 0 0.25 0"/>
<feBlend mode="normal" in2="BackgroundImageFix" result="effect1_dropShadow_3_44"/>
<feBlend mode="normal" in="SourceGraphic" in2="effect1_dropShadow_3_44" result="shape"/>
</filter>
<linearGradient id="paint0_linear_3_44" x1="136.106" y1="654.06" x2="-44.8803" y2="640.659" gradientUnits="userSpaceOnUse">
<stop stop-color="#FFFEFE"/>
<stop offset="0.38" stop-color="#D1D1D1"/>
<stop offset="1" stop-color="#F7F7F7"/>
</linearGradient>
<linearGradient id="paint1_linear_3_44" x1="403.459" y1="364.37" x2="223.076" y2="384.305" gradientUnits="userSpaceOnUse">
<stop stop-color="#FFBA7F"/>
<stop offset="0.38" stop-color="#CF499D"/>
<stop offset="1" stop-color="#6C23F5"/>
</linearGradient>
<clipPath id="clip0_3_44">
<rect width="1280" height="640" fill="white"/>
</clipPath>
<clipPath id="clip1_3_44">
<rect width="256" height="256" fill="white" transform="translate(-45.167 445) rotate(10.5411)"/>
</clipPath>
</defs>
</svg>
