<?xml version="1.0" encoding="UTF-8" standalone="no"?><!DOCTYPE svg PUBLIC "-//W3C//DTD SVG 1.1//EN" "http://www.w3.org/Graphics/SVG/1.1/DTD/svg11.dtd"><svg width="100%" height="100%" viewBox="0 0 512 512" version="1.1" xmlns="http://www.w3.org/2000/svg" xmlns:xlink="http://www.w3.org/1999/xlink" xml:space="preserve" xmlns:serif="http://www.serif.com/" style="fill-rule:evenodd;clip-rule:evenodd;stroke-linecap:round;stroke-linejoin:round;stroke-miterlimit:1.5;"><path d="M243.634,428.453c-0,0 49.1,23.048 114.75,18.281c0,0 86.195,6.094 88.047,-83.399c0,0 2.098,-27.152 -27.166,-63.068c0,0 14.779,-49.429 -35.916,-89.078c0,-0 -1.516,-73.216 -58.405,-82.169c-0,-0 7.779,-44.902 -42.385,-45.939c-0,0 -25.576,1.634 -44.869,-27.653c-0,-0 -14.549,0.939 -30.756,24.255c0,-0 6.25,36.544 -48.323,43.389c0,-0 -38.661,18.442 -16.794,60.669c-0,0 -26.451,14.893 -42.704,35.979c0,-0 -8.312,8.177 -5.084,28.53c-0,0 2.009,10.184 3.48,20.936c0,0 1.101,6.105 -3.48,10.448c-0,0 -2.996,2.288 -32.513,35.326c-0,0 -9.309,8.424 -12.997,41.826c-0,-0 -8.253,83.344 98.68,89.948c0,0 61.432,-1.946 90.491,-17.953l3.071,-1.722l2.873,1.394Z" style="fill:url(#_Linear1);"/><clipPath id="_clip2"><path d="M243.634,428.453c-0,0 49.1,23.048 114.75,18.281c0,0 86.195,6.094 88.047,-83.399c0,0 2.098,-27.152 -27.166,-63.068c0,0 14.779,-49.429 -35.916,-89.078c0,-0 -1.516,-73.216 -58.405,-82.169c-0,-0 7.779,-44.902 -42.385,-45.939c-0,0 -25.576,1.634 -44.869,-27.653c-0,-0 -14.549,0.939 -30.756,24.255c0,-0 6.25,36.544 -48.323,43.389c0,-0 -38.661,18.442 -16.794,60.669c-0,0 -26.451,14.893 -42.704,35.979c0,-0 -8.312,8.177 -5.084,28.53c-0,0 2.009,10.184 3.48,20.936c0,0 1.101,6.105 -3.48,10.448c-0,0 -2.996,2.288 -32.513,35.326c-0,0 -9.309,8.424 -12.997,41.826c-0,-0 -8.253,83.344 98.68,89.948c0,0 61.432,-1.946 90.491,-17.953l3.071,-1.722l2.873,1.394Z"/></clipPath><g clip-path="url(#_clip2)"><g><g><path d="M288.137,261.652c0,0 13.706,-25.849 34.766,-3.824" style="fill:none;stroke:#11113f;stroke-width:8.33px;"/><path d="M173.577,270.696c-0,0 13.706,-25.848 34.765,-3.823" style="fill:none;stroke:#11113f;stroke-width:8.33px;"/></g><path d="M197.611,332.93l-0.247,-2.203c-0.781,-6.964 4.449,-13.274 11.672,-14.084l84.913,-9.518c7.223,-0.81 13.72,4.186 14.501,11.15l0.174,1.555c-3.009,22.006 -23.178,40.836 -49.833,44.54c-27.61,3.836 -53.017,-9.83 -61.18,-31.44Z" style="fill:#11113f;"/></g></g><defs><linearGradient id="_Linear1" x1="0" y1="0" x2="1" y2="0" gradientUnits="userSpaceOnUse" gradientTransform="matrix(-360.767,39.8691,-39.8691,-360.767,432.919,344.74)"><stop offset="0" style="stop-color:#ffba7f;stop-opacity:1"/><stop offset="0.38" style="stop-color:#cf499d;stop-opacity:1"/><stop offset="1" style="stop-color:#6c23f5;stop-opacity:1"/></linearGradient></defs></svg>